<?xml version="1.0" standalone="no"?>
<!DOCTYPE svg PUBLIC "-//W3C//DTD SVG 20010904//EN"
 "http://www.w3.org/TR/2001/REC-SVG-20010904/DTD/svg10.dtd">
<svg version="1.0" xmlns="http://www.w3.org/2000/svg"
 width="704.000000pt" height="704.000000pt" viewBox="0 0 704.000000 704.000000"
 preserveAspectRatio="xMidYMid meet">
<metadata>
Created by potrace 1.11, written by Peter Selinger 2001-2013
</metadata>
<g transform="translate(0.000000,704.000000) scale(0.100000,-0.100000)"
fill="#000000" stroke="none">
<path d="M1306 5962 c-582 -582 -1063 -1067 -1069 -1078 -6 -10 -13 -21 -17
-24 -19 -15 -35 -84 -35 -155 0 -65 5 -90 26 -136 55 -117 134 -164 364 -214
11 -3 144 -36 295 -75 151 -39 284 -73 296 -75 11 -3 56 -14 100 -26 43 -11
92 -22 107 -25 16 -2 33 -7 38 -10 6 -3 24 -8 40 -11 16 -2 43 -10 59 -17 l29
-12 -38 -59 c-127 -200 -233 -418 -327 -670 -4 -11 -8 -24 -9 -30 -2 -5 -10
-35 -20 -65 -9 -30 -19 -68 -21 -85 -3 -16 -9 -46 -14 -65 -25 -97 -30 -332
-10 -425 6 -27 12 -57 13 -65 11 -65 94 -242 137 -288 16 -18 27 -32 24 -32
-8 0 122 -126 195 -190 149 -130 294 -224 506 -326 66 -32 122 -62 123 -66 2
-4 8 -8 14 -8 19 0 104 -65 169 -130 63 -63 140 -157 189 -232 14 -21 28 -38
33 -38 4 0 7 -7 7 -15 0 -8 4 -15 8 -15 4 0 15 -12 24 -27 9 -16 24 -37 32
-48 9 -11 41 -54 71 -95 31 -41 61 -82 68 -90 7 -8 39 -49 72 -90 33 -41 65
-80 70 -86 6 -6 37 -42 70 -80 73 -84 263 -274 329 -329 27 -22 54 -45 60 -50
25 -24 135 -105 141 -105 4 0 13 -6 20 -12 31 -28 44 -38 51 -38 4 0 21 -10
38 -23 63 -46 319 -163 396 -181 8 -2 33 -9 55 -15 87 -23 129 -26 370 -26
231 0 257 2 335 23 47 13 90 25 95 26 10 3 23 8 97 39 20 8 39 13 42 9 3 -3 6
0 6 6 0 7 7 12 15 12 30 0 329 169 385 218 8 7 51 41 95 76 101 80 196 173
260 256 28 36 52 67 55 70 3 3 11 15 18 27 6 13 18 33 25 45 6 13 15 25 18 28
12 11 78 178 93 235 26 103 28 117 31 250 3 143 -8 240 -41 365 -8 30 -16 60
-18 65 -6 25 -59 181 -65 190 -3 6 -6 12 -7 15 -5 24 -102 237 -190 415 -54
110 -99 202 -100 205 0 3 -27 59 -59 125 -114 237 -208 499 -231 640 -3 22 -7
42 -9 45 -7 11 -18 147 -17 213 1 66 17 166 32 196 4 9 16 34 26 55 22 47 89
114 136 138 18 9 119 45 223 79 105 34 242 79 305 101 63 21 122 41 130 43 42
10 571 194 605 211 95 44 165 153 166 255 0 55 -4 73 -31 127 -35 72 7 28
-1199 1250 -267 271 -588 596 -712 722 -125 127 -230 230 -234 230 -4 0 -1 -7
6 -16 7 -9 18 -24 24 -34 5 -9 17 -28 26 -41 75 -113 259 -409 259 -418 0 -6
5 -11 10 -11 6 0 14 -8 17 -17 7 -17 33 -59 180 -286 35 -53 63 -102 63 -107
0 -6 4 -10 8 -10 5 0 15 -12 23 -27 12 -25 97 -160 164 -263 13 -19 95 -150
184 -290 88 -140 165 -260 171 -267 5 -7 10 -16 10 -21 0 -5 9 -17 20 -27 11
-10 20 -22 20 -27 0 -5 18 -36 40 -68 22 -32 40 -63 40 -68 0 -5 9 -17 20 -27
11 -10 20 -21 20 -25 0 -4 20 -38 45 -76 25 -37 45 -71 45 -75 0 -8 -305 -112
-327 -112 -7 0 -13 -4 -13 -9 0 -4 -9 -8 -20 -8 -12 0 -34 -7 -50 -15 -17 -9
-31 -15 -32 -14 -2 1 -94 -28 -204 -64 -199 -65 -301 -111 -379 -171 -71 -54
-174 -167 -221 -242 -45 -72 -101 -193 -107 -230 -1 -11 -5 -23 -8 -29 -4 -5
-9 -26 -13 -45 -3 -19 -8 -46 -11 -60 -28 -145 -22 -365 15 -550 6 -30 14 -66
16 -80 3 -14 14 -56 25 -95 11 -38 21 -77 24 -85 8 -30 44 -136 65 -190 12
-30 27 -71 35 -90 26 -70 90 -209 185 -405 135 -278 205 -424 223 -465 8 -19
22 -51 30 -70 34 -76 77 -214 92 -292 48 -261 -38 -449 -300 -653 -283 -221
-556 -315 -820 -282 -65 8 -98 15 -132 28 -16 6 -30 11 -33 11 -8 1 -33 10
-92 34 -148 61 -348 206 -513 371 -113 113 -215 228 -299 337 -17 23 -39 50
-48 61 -10 11 -60 79 -112 150 -52 72 -102 139 -110 150 -9 11 -43 56 -75 100
-87 117 -184 223 -257 280 -20 17 -42 35 -48 41 -6 6 -36 27 -66 47 -30 20
-59 40 -65 45 -5 4 -82 43 -170 87 -233 116 -358 202 -510 350 -68 68 -93 141
-88 260 5 133 62 328 145 503 23 48 42 89 42 92 2 12 126 224 183 313 35 54
63 102 63 107 0 4 4 10 8 12 13 4 107 139 130 185 79 156 10 357 -148 429 -41
19 -248 75 -369 100 -14 3 -28 7 -32 9 -4 3 -24 7 -45 11 -22 3 -43 9 -49 13
-5 4 -23 8 -40 10 -16 2 -36 8 -42 13 -7 6 -13 8 -13 5 0 -3 -29 3 -65 13 -36
10 -65 16 -65 13 0 -3 -6 -1 -12 4 -7 6 -20 10 -28 11 -13 0 -240 58 -312 79
l-27 8 74 115 c40 63 112 176 159 250 47 74 90 142 96 150 9 13 50 78 136 210
16 25 33 53 39 62 10 18 178 279 312 485 40 62 73 117 73 122 0 6 6 14 13 18
6 4 18 18 25 31 6 12 18 32 25 45 6 12 18 26 25 30 6 4 12 12 12 18 0 5 33 60
73 122 40 61 88 137 107 167 19 30 38 57 42 58 5 2 8 9 8 16 0 6 7 21 15 31
30 38 168 255 162 255 -1 0 -479 -476 -1061 -1058z"/>
<path d="M2603 3587 c-20 -24 -98 -237 -87 -237 2 0 -1 -12 -7 -27 -18 -46
-20 -64 -23 -168 -6 -198 59 -318 233 -430 60 -38 169 -94 195 -100 12 -2 41
-13 71 -25 11 -5 34 -11 50 -14 17 -4 44 -9 60 -12 17 -4 35 -7 40 -9 42 -9
89 -16 139 -19 l58 -5 -5 32 c-16 85 -33 147 -59 203 -12 27 -21 52 -20 57 1
4 -3 7 -8 7 -6 0 -10 5 -10 12 0 11 -77 148 -89 158 -4 3 -14 17 -23 31 -22
35 -137 178 -168 209 -14 14 -50 55 -81 90 -69 79 -173 186 -221 229 -27 24
-38 28 -45 18z"/>
</g>
</svg>
