<svg width="167" height="176" fill="none" xmlns="http://www.w3.org/2000/svg"><g clip-path="url(#clip0)"><path fill-rule="evenodd" clip-rule="evenodd" d="M19.715 55.188L55.104 0 2.348 52.755c-4.39 4.39-2.324 11.89 3.694 13.413l27.962 7.079c-2.497 3.924-5.324 8.873-7.521 14.119-2.014 4.805-3.692 10.307-3.858 15.756-.17 5.58 1.26 11.559 5.979 16.277 7.09 7.09 12.238 9.564 16.35 11.539.306.147.606.291.9.434 1.913.929 3.327 1.691 4.826 2.89 1.514 1.21 3.352 3.059 5.712 6.305.42.578.866 1.195 1.335 1.847 5.148 7.143 13.227 18.354 23.652 25.796 5.818 4.152 12.722 7.414 20.617 8.053 7.997.647 16.348-1.454 24.848-6.928 8.141-5.244 13.506-11.085 16.03-17.888 2.542-6.851 1.789-13.566-.06-19.656-1.693-5.578-4.519-11.266-7.156-16.575l-.005-.01-.052-.104-.44-.887c-2.885-5.816-5.606-11.438-7.417-17.324-3.535-11.49-1.137-16.468.37-18.44a8.323 8.323 0 012.696-2.29c.392-.209.706-.333.879-.395l.093-.032.166-.039.285-.093h.001l1.251-.41 3.298-1.086c2.731-.9 6.38-2.106 10.047-3.328 3.661-1.22 7.36-2.464 10.184-3.437 1.405-.484 2.629-.913 3.534-1.244.443-.162.867-.322 1.217-.463.166-.067.396-.163.634-.275a8.1 8.1 0 00.55-.283l.011-.006a7.2 7.2 0 001.543-1.17c2.843-2.843 1.933-6.327 1.84-6.685l-.005-.017a7.159 7.159 0 00-.654-1.66 8.226 8.226 0 00-.63-.976c-.247-.33-.521-.653-.729-.893a78.134 78.134 0 00-1.796-1.968c-.864-.922-17.638-17.915-31.73-32.19C121.04 9.626 112.568 1.043 111.554 0c.12.123 9.145 14.323 18.078 28.378 8.754 13.773 17.42 27.407 17.533 27.524-1.535.517-3.148 1.056-4.762 1.594a3169.556 3169.556 0 01-13.286 4.394l-1.057.347-.086.024-.064.018c-.247.072-.558.17-.922.3-.725.258-1.677.65-2.753 1.222a22.322 22.322 0 00-7.242 6.147c-4.992 6.528-7.094 16.55-2.63 31.06 2.189 7.114 5.406 13.68 8.255 19.427l.28.563c2.836 5.716 5.177 10.435 6.52 14.86 1.339 4.41 1.429 7.758.331 10.719-1.117 3.01-3.877 6.731-10.486 10.988-6.25 4.025-11.58 5.112-16.139 4.743-4.66-.377-9.185-2.333-13.611-5.493-8.44-6.025-15.212-15.383-20.549-22.759-.426-.588-.842-1.163-1.25-1.723-2.912-4.005-5.585-6.843-8.294-9.008-2.723-2.176-5.245-3.476-7.451-4.547-.318-.155-.634-.306-.949-.457v-.001c-3.623-1.737-7.104-3.407-12.517-8.82-1.247-1.248-1.974-3.041-1.885-5.951.093-3.04 1.09-6.746 2.777-10.774 3.364-8.028 8.7-15.567 10.832-18.415 3.48-4.65 1.003-11.194-4.458-12.577l-26.054-6.595zm59.017 57.235s-10.79 0-17.982-6.618c-7.192-6.619 0-19.855 0-19.855s2.098 1.323 10.04 10.589c7.942 9.266 7.942 15.884 7.942 15.884z" fill="url(#paint0_linear)"/></g><defs><linearGradient id="paint0_linear" x1="83.554" y1="79.45" x2="83.277" y2="176.376" gradientUnits="userSpaceOnUse"><stop stop-color="#22E1FF"/><stop offset="1" stop-color="#002EFF"/></linearGradient><clipPath id="clip0"><path fill="#fff" d="M0 0h167v176H0z"/></clipPath></defs></svg>